<svg xmlns="http://www.w3.org/2000/svg" version="1.1" xmlns:xlink="http://www.w3.org/1999/xlink" xmlns:svgjs="http://svgjs.dev/svgjs" width="1368" height="912" preserveAspectRatio="none" viewBox="0 0 1368 912"><g mask="url(&quot;#SvgjsMask20991&quot;)" fill="none"><path d="M1002.35 305.37 L1072.13 343.8L984.8457058998736 376.9792941001265z" fill="rgba(33, 137, 126, 1)"></path><path d="M1315.6 886.32 L1186.9099999999999 806.01L1309.5279489379645 787.8920510620353z" fill="rgba(33, 137, 126, 1)"></path><rect width="331.76" height="331.76" clip-path="url(&quot;#SvgjsClipPath20992&quot;)" x="398.39" y="678.98" fill="url(&quot;#SvgjsPattern20993&quot;)" transform="rotate(54.29, 564.27, 844.86)"></rect><path d="M988.98 603.57a5.6 5.6 0 1 0 8.23 7.6 5.6 5.6 0 1 0-8.23-7.6zM1000.73 614.43a5.6 5.6 0 1 0 8.23 7.6 5.6 5.6 0 1 0-8.23-7.6zM1012.48 625.29a5.6 5.6 0 1 0 8.23 7.6 5.6 5.6 0 1 0-8.23-7.6zM1024.23 636.15a5.6 5.6 0 1 0 8.23 7.6 5.6 5.6 0 1 0-8.23-7.6zM954.62 593.61a5.6 5.6 0 1 0 8.23 7.6 5.6 5.6 0 1 0-8.23-7.6zM966.37 604.47a5.6 5.6 0 1 0 8.23 7.6 5.6 5.6 0 1 0-8.23-7.6zM978.12 615.32a5.6 5.6 0 1 0 8.23 7.61 5.6 5.6 0 1 0-8.23-7.61zM989.87 626.18a5.6 5.6 0 1 0 8.23 7.6 5.6 5.6 0 1 0-8.23-7.6zM920.26 583.64a5.6 5.6 0 1 0 8.22 7.6 5.6 5.6 0 1 0-8.22-7.6zM932.01 594.5a5.6 5.6 0 1 0 8.23 7.6 5.6 5.6 0 1 0-8.23-7.6zM943.76 605.36a5.6 5.6 0 1 0 8.23 7.6 5.6 5.6 0 1 0-8.23-7.6zM955.51 616.22a5.6 5.6 0 1 0 8.23 7.6 5.6 5.6 0 1 0-8.23-7.6z" fill="rgba(247, 240, 82, 1)"></path><rect width="129.8" height="129.8" clip-path="url(&quot;#SvgjsClipPath20994&quot;)" x="815.1" y="737.65" fill="url(&quot;#SvgjsPattern20995&quot;)" transform="rotate(267.35, 880, 802.55)"></rect><path d="M1337.02 397.53a5.6 5.6 0 1 0-6.52-9.11 5.6 5.6 0 1 0 6.52 9.11zM1327.71 384.52a5.6 5.6 0 1 0-6.51-9.11 5.6 5.6 0 1 0 6.51 9.11zM1318.41 371.5a5.6 5.6 0 1 0-6.52-9.11 5.6 5.6 0 1 0 6.52 9.11zM1309.1 358.48a5.6 5.6 0 1 0-6.51-9.11 5.6 5.6 0 1 0 6.51 9.11zM1368.64 414.26a5.6 5.6 0 1 0-6.51-9.11 5.6 5.6 0 1 0 6.51 9.11zM1359.34 401.24a5.6 5.6 0 1 0-6.51-9.11 5.6 5.6 0 1 0 6.51 9.11zM1350.03 388.23a5.6 5.6 0 1 0-6.51-9.11 5.6 5.6 0 1 0 6.51 9.11zM1340.73 375.21a5.6 5.6 0 1 0-6.51-9.11 5.6 5.6 0 1 0 6.51 9.11z" stroke="rgba(33, 137, 126, 1)" stroke-width="1" stroke-dasharray="3, 2"></path><path d="M663.65 792.18L657.19 781.13 666.55 772.4 660.09 761.34 669.45 752.61 662.98 741.55 672.35 732.82" stroke="rgba(33, 137, 126, 1)" stroke-width="2.43" stroke-dasharray="2, 2"></path></g><defs><mask id="SvgjsMask20991"><rect width="1368" height="912" fill="#ffffff"></rect></mask><pattern x="0" y="0" width="12.76" height="12.76" patternUnits="userSpaceOnUse" id="SvgjsPattern20993"><path d="M6.38 1L6.38 11.76M1 6.38L11.76 6.38" stroke="rgba(247, 240, 82, 1)" fill="none" stroke-width="1.34"></path></pattern><clipPath id="SvgjsClipPath20992"><circle r="82.94" cx="564.27" cy="844.86"></circle></clipPath><pattern x="0" y="0" width="12.98" height="12.98" patternUnits="userSpaceOnUse" id="SvgjsPattern20995"><path d="M0 12.98L6.49 0L12.98 12.98" stroke="rgba(33, 137, 126, 1)" fill="none"></path></pattern><clipPath id="SvgjsClipPath20994"><circle r="32.45" cx="880" cy="802.55"></circle></clipPath></defs></svg>