<svg xmlns="http://www.w3.org/2000/svg" version="1.1" xmlns:xlink="http://www.w3.org/1999/xlink" xmlns:svgjs="http://svgjs.dev/svgjs" width="414" height="896" preserveAspectRatio="none" viewBox="0 0 414 896"><g mask="url(&quot;#SvgjsMask10491&quot;)" fill="none"><path d="M325.81 409.7a5.6 5.6 0 1 0-7.14-8.63 5.6 5.6 0 1 0 7.14 8.63zM315.61 397.37a5.6 5.6 0 1 0-7.15-8.63 5.6 5.6 0 1 0 7.15 8.63zM305.4 385.04a5.6 5.6 0 1 0-7.14-8.63 5.6 5.6 0 1 0 7.14 8.63zM295.2 372.72a5.6 5.6 0 1 0-7.14-8.63 5.6 5.6 0 1 0 7.14 8.63z" fill="rgba(247, 240, 82, 1)"></path><circle r="63.733496953404966" cx="230.79" cy="71.84" fill="rgba(33, 137, 126, 1)"></circle><rect width="174.72" height="174.72" clip-path="url(&quot;#SvgjsClipPath10492&quot;)" x="-64.56" y="673.31" fill="url(&quot;#SvgjsPattern10493&quot;)" transform="rotate(290.13, 22.8, 760.67)"></rect><rect width="60" height="60" clip-path="url(&quot;#SvgjsClipPath10494&quot;)" x="338.35" y="435.8" fill="url(&quot;#SvgjsPattern10495&quot;)" transform="rotate(142.6, 368.35, 465.8)"></rect><path d="M400.22 620.39L392.77 630.8 380.97 625.82 373.52 636.24 361.72 631.25 354.27 641.67 342.48 636.69M398.05 612.69L390.6 623.1 378.8 618.12 371.35 628.54 359.55 623.55 352.1 633.97 340.3 628.99M395.87 604.99L388.42 615.41 376.63 610.42 369.17 620.84 357.38 615.85 349.93 626.27 338.13 621.29" stroke="rgba(247, 240, 82, 1)" stroke-width="2.25"></path><path d="M443.7 385.17 L469.7 305.52L498.2907033721947 386.9357033721947z" stroke="rgba(33, 137, 126, 1)" stroke-width="2.69"></path><path d="M294.97 626.23a5.6 5.6 0 1 0 7.63-8.19 5.6 5.6 0 1 0-7.63 8.19zM305.87 614.52a5.6 5.6 0 1 0 7.63-8.2 5.6 5.6 0 1 0-7.63 8.2zM316.77 602.81a5.6 5.6 0 1 0 7.63-8.2 5.6 5.6 0 1 0-7.63 8.2zM327.67 591.1a5.6 5.6 0 1 0 7.64-8.2 5.6 5.6 0 1 0-7.64 8.2zM284.88 660.56a5.6 5.6 0 1 0 7.63-8.2 5.6 5.6 0 1 0-7.63 8.2zM295.78 648.85a5.6 5.6 0 1 0 7.63-8.2 5.6 5.6 0 1 0-7.63 8.2zM306.68 637.14a5.6 5.6 0 1 0 7.63-8.2 5.6 5.6 0 1 0-7.63 8.2zM317.58 625.42a5.6 5.6 0 1 0 7.63-8.19 5.6 5.6 0 1 0-7.63 8.19z" stroke="rgba(191, 197, 197, 1)" stroke-width="2.38" stroke-dasharray="3, 2"></path><rect width="253.64" height="253.64" clip-path="url(&quot;#SvgjsClipPath10496&quot;)" x="48.24" y="-21.34" fill="url(&quot;#SvgjsPattern10497&quot;)" transform="rotate(259.6, 175.06, 105.48)"></rect><path d="M410.05 15.18a5.6 5.6 0 1 0-10.55 3.76 5.6 5.6 0 1 0 10.55-3.76zM394.98 20.56a5.6 5.6 0 1 0-10.54 3.76 5.6 5.6 0 1 0 10.54-3.76zM379.92 25.94a5.6 5.6 0 1 0-10.55 3.77 5.6 5.6 0 1 0 10.55-3.77zM364.85 31.32a5.6 5.6 0 1 0-10.55 3.77 5.6 5.6 0 1 0 10.55-3.77zM434.81-10.65a5.6 5.6 0 1 0-10.55 3.77 5.6 5.6 0 1 0 10.55-3.77zM419.74-5.27a5.6 5.6 0 1 0-10.55 3.77 5.6 5.6 0 1 0 10.55-3.77zM404.67 0.11a5.6 5.6 0 1 0-10.55 3.77 5.6 5.6 0 1 0 10.55-3.77zM389.6 5.49a5.6 5.6 0 1 0-10.54 3.77 5.6 5.6 0 1 0 10.54-3.77zM459.56-36.48a5.6 5.6 0 1 0-10.54 3.77 5.6 5.6 0 1 0 10.54-3.77zM444.5-31.1a5.6 5.6 0 1 0-10.55 3.77 5.6 5.6 0 1 0 10.55-3.77zM429.43-25.72a5.6 5.6 0 1 0-10.55 3.77 5.6 5.6 0 1 0 10.55-3.77zM414.36-20.34a5.6 5.6 0 1 0-10.55 3.77 5.6 5.6 0 1 0 10.55-3.77z" stroke="rgba(33, 137, 126, 1)" stroke-width="1" stroke-dasharray="3, 3"></path><rect width="202.88" height="202.88" clip-path="url(&quot;#SvgjsClipPath10498&quot;)" x="4.5" y="545.86" fill="url(&quot;#SvgjsPattern10499&quot;)" transform="rotate(205.43, 105.94, 647.3)"></rect></g><defs><mask id="SvgjsMask10491"><rect width="414" height="896" fill="#ffffff"></rect></mask><pattern x="0" y="0" width="174.72" height="10.92" patternUnits="userSpaceOnUse" id="SvgjsPattern10493"><rect width="174.72" height="5.46" x="0" y="0" fill="rgba(33, 137, 126, 1)"></rect><rect width="174.72" height="5.46" x="0" y="5.46" fill="rgba(0, 0, 0, 0)"></rect></pattern><clipPath id="SvgjsClipPath10492"><circle r="43.68" cx="22.8" cy="760.67"></circle></clipPath><pattern x="0" y="0" width="60" height="6" patternUnits="userSpaceOnUse" id="SvgjsPattern10495"><rect width="60" height="3" x="0" y="0" fill="rgba(191, 197, 197, 1)"></rect><rect width="60" height="3" x="0" y="3" fill="rgba(0, 0, 0, 0)"></rect></pattern><clipPath id="SvgjsClipPath10494"><circle r="15" cx="368.35" cy="465.8"></circle></clipPath><pattern x="0" y="0" width="7.46" height="7.46" patternUnits="userSpaceOnUse" id="SvgjsPattern10497"><path d="M3.73 1L3.73 6.46M1 3.73L6.46 3.73" stroke="rgba(31, 40, 54, 1)" fill="none" stroke-width="2.31"></path></pattern><clipPath id="SvgjsClipPath10496"><circle r="63.41" cx="175.06" cy="105.48"></circle></clipPath><pattern x="0" y="0" width="6.34" height="6.34" patternUnits="userSpaceOnUse" id="SvgjsPattern10499"><path d="M0 6.34L3.17 0L6.34 6.34" stroke="rgba(33, 137, 126, 1)" fill="none"></path></pattern><clipPath id="SvgjsClipPath10498"><circle r="50.72" cx="105.94" cy="647.3"></circle></clipPath></defs></svg>