<svg xmlns="http://www.w3.org/2000/svg" version="1.1" xmlns:xlink="http://www.w3.org/1999/xlink" xmlns:svgjs="http://svgjs.dev/svgjs" width="912" height="1368" preserveAspectRatio="none" viewBox="0 0 912 1368"><g mask="url(&quot;#SvgjsMask14750&quot;)" fill="none"><rect width="552" height="552" clip-path="url(&quot;#SvgjsClipPath14751&quot;)" x="230.67" y="728.77" fill="url(&quot;#SvgjsPattern14752&quot;)" transform="rotate(306.94, 506.67, 1004.77)"></rect><rect width="258.72" height="258.72" clip-path="url(&quot;#SvgjsClipPath14753&quot;)" x="94.15" y="642.36" fill="url(&quot;#SvgjsPattern14754&quot;)" transform="rotate(270.45, 223.51, 771.72)"></rect><circle r="94.96032005937042" cx="148.52" cy="1361.51" fill="rgba(191, 197, 197, 1)"></circle><path d="M935.95 300.79999999999995 L1007.25 204.64L898.079538338234 179.199538338234z" fill="rgba(33, 137, 126, 1)"></path><path d="M748.58 234.68a5.6 5.6 0 1 0 10.88-2.66 5.6 5.6 0 1 0-10.88 2.66zM764.12 230.88a5.6 5.6 0 1 0 10.88-2.66 5.6 5.6 0 1 0-10.88 2.66zM779.66 227.08a5.6 5.6 0 1 0 10.88-2.66 5.6 5.6 0 1 0-10.88 2.66zM795.2 223.28a5.6 5.6 0 1 0 10.88-2.66 5.6 5.6 0 1 0-10.88 2.66z" fill="rgba(191, 197, 197, 1)"></path><path d="M499.55 482.89a5.6 5.6 0 1 0 7.6 8.22 5.6 5.6 0 1 0-7.6-8.22zM510.41 494.64a5.6 5.6 0 1 0 7.61 8.22 5.6 5.6 0 1 0-7.61-8.22zM521.27 506.39a5.6 5.6 0 1 0 7.61 8.22 5.6 5.6 0 1 0-7.61-8.22zM532.13 518.14a5.6 5.6 0 1 0 7.61 8.22 5.6 5.6 0 1 0-7.61-8.22zM466.08 470.25a5.6 5.6 0 1 0 7.6 8.23 5.6 5.6 0 1 0-7.6-8.23zM476.94 482a5.6 5.6 0 1 0 7.6 8.23 5.6 5.6 0 1 0-7.6-8.23zM487.8 493.75a5.6 5.6 0 1 0 7.61 8.22 5.6 5.6 0 1 0-7.61-8.22zM498.66 505.5a5.6 5.6 0 1 0 7.61 8.22 5.6 5.6 0 1 0-7.61-8.22zM432.61 457.61a5.6 5.6 0 1 0 7.6 8.23 5.6 5.6 0 1 0-7.6-8.23zM443.47 469.36a5.6 5.6 0 1 0 7.6 8.23 5.6 5.6 0 1 0-7.6-8.23zM454.33 481.11a5.6 5.6 0 1 0 7.6 8.23 5.6 5.6 0 1 0-7.6-8.23zM465.19 492.86a5.6 5.6 0 1 0 7.61 8.23 5.6 5.6 0 1 0-7.61-8.23z" stroke="rgba(33, 137, 126, 1)" stroke-width="2.05" stroke-dasharray="4, 4"></path><circle r="119.58369769805533" cx="79.97" cy="583.36" stroke="rgba(33, 137, 126, 1)" stroke-width="1" stroke-dasharray="4, 4"></circle></g><defs><mask id="SvgjsMask14750"><rect width="912" height="1368" fill="#ffffff"></rect></mask><pattern x="0" y="0" width="552" height="6" patternUnits="userSpaceOnUse" id="SvgjsPattern14752"><rect width="552" height="3" x="0" y="0" fill="rgba(247, 240, 82, 1)"></rect><rect width="552" height="3" x="0" y="3" fill="rgba(0, 0, 0, 0)"></rect></pattern><clipPath id="SvgjsClipPath14751"><circle r="138" cx="506.67" cy="1004.77"></circle></clipPath><pattern x="0" y="0" width="258.72" height="9.24" patternUnits="userSpaceOnUse" id="SvgjsPattern14754"><rect width="258.72" height="4.62" x="0" y="0" fill="rgba(247, 240, 82, 1)"></rect><rect width="258.72" height="4.62" x="0" y="4.62" fill="rgba(0, 0, 0, 0)"></rect></pattern><clipPath id="SvgjsClipPath14753"><circle r="64.68" cx="223.51" cy="771.72"></circle></clipPath></defs></svg>