<svg xmlns="http://www.w3.org/2000/svg" version="1.1" xmlns:xlink="http://www.w3.org/1999/xlink" xmlns:svgjs="http://svgjs.dev/svgjs" width="1635" height="1260" preserveAspectRatio="none" viewBox="0 0 1635 1260"><g mask="url(&quot;#SvgjsMask32072&quot;)" fill="none"><rect width="540" height="540" clip-path="url(&quot;#SvgjsClipPath32073&quot;)" x="544.63" y="-155.62" fill="url(&quot;#SvgjsPattern32074&quot;)" transform="rotate(195.18, 814.63, 114.38)"></rect><rect width="225.72" height="225.72" clip-path="url(&quot;#SvgjsClipPath32075&quot;)" x="1470.31" y="1116.54" fill="url(&quot;#SvgjsPattern32076&quot;)" transform="rotate(229.71, 1583.17, 1229.4)"></rect><path d="M286.29 97.37L289.28 109.82 277.79 115.47 280.77 127.93 269.28 133.57 272.27 146.03 260.77 151.67M279.05 93.97L282.04 106.42 270.55 112.07 273.53 124.52 262.04 130.17 265.03 142.62 253.53 148.27M271.81 90.57L274.8 103.02 263.31 108.67 266.29 121.12 254.8 126.77 257.79 139.22 246.29 144.87" stroke="rgba(247, 240, 82, 1)" stroke-width="1" stroke-dasharray="2, 2"></path><rect width="216" height="216" clip-path="url(&quot;#SvgjsClipPath32077&quot;)" x="1211.35" y="271.7" fill="url(&quot;#SvgjsPattern32078&quot;)" transform="rotate(123.69, 1319.35, 379.7)"></rect><circle r="159.4127215024505" cx="1198.3" cy="142.59" fill="rgba(33, 137, 126, 1)"></circle><rect width="348.32" height="348.32" clip-path="url(&quot;#SvgjsClipPath32079&quot;)" x="912.81" y="476.65" fill="url(&quot;#SvgjsPattern32080&quot;)" transform="rotate(78.43, 1086.97, 650.81)"></rect></g><defs><mask id="SvgjsMask32072"><rect width="1635" height="1260" fill="#ffffff"></rect></mask><pattern x="0" y="0" width="540" height="6" patternUnits="userSpaceOnUse" id="SvgjsPattern32074"><rect width="540" height="3" x="0" y="0" fill="rgba(33, 137, 126, 1)"></rect><rect width="540" height="3" x="0" y="3" fill="rgba(0, 0, 0, 0)"></rect></pattern><clipPath id="SvgjsClipPath32073"><circle r="135" cx="814.63" cy="114.38"></circle></clipPath><pattern x="0" y="0" width="10.26" height="10.26" patternUnits="userSpaceOnUse" id="SvgjsPattern32076"><path d="M5.13 1L5.13 9.26M1 5.13L9.26 5.13" stroke="rgba(33, 137, 126, 1)" fill="none" stroke-width="1.16"></path></pattern><clipPath id="SvgjsClipPath32075"><circle r="56.43" cx="1583.17" cy="1229.4"></circle></clipPath><pattern x="0" y="0" width="6" height="6" patternUnits="userSpaceOnUse" id="SvgjsPattern32078"><path d="M3 1L3 5M1 3L5 3" stroke="rgba(33, 137, 126, 1)" fill="none" stroke-width="1.1"></path></pattern><clipPath id="SvgjsClipPath32077"><circle r="54" cx="1319.35" cy="379.7"></circle></clipPath><pattern x="0" y="0" width="12.44" height="12.44" patternUnits="userSpaceOnUse" id="SvgjsPattern32080"><path d="M0 12.44L6.22 0L12.44 12.44" stroke="rgba(31, 40, 54, 1)" fill="none"></path></pattern><clipPath id="SvgjsClipPath32079"><circle r="87.08" cx="1086.97" cy="650.81"></circle></clipPath></defs></svg>